<?xml version="1.0" encoding="UTF-8" standalone="no"?>
<svg
   xmlns:dc="http://purl.org/dc/elements/1.1/"
   xmlns:cc="http://creativecommons.org/ns#"
   xmlns:rdf="http://www.w3.org/1999/02/22-rdf-syntax-ns#"
   xmlns:svg="http://www.w3.org/2000/svg"
   xmlns="http://www.w3.org/2000/svg"
   xmlns:sodipodi="http://sodipodi.sourceforge.net/DTD/sodipodi-0.dtd"
   xmlns:inkscape="http://www.inkscape.org/namespaces/inkscape"
   width="64"
   height="64"
   version="1.1"
   id="svg10"
   sodipodi:docname="mnotify-none-wireframe2.svg"
   inkscape:version="0.92.5 (2060ec1f9f, 2020-04-08)"
   inkscape:export-filename="/media/Data/MX19-artwork/mx-updater-icons/fehlix/mnotify-none-wireframe2.png"
   inkscape:export-xdpi="96"
   inkscape:export-ydpi="96">
  <metadata
     id="metadata16">
    <rdf:RDF>
      <cc:Work
         rdf:about="">
        <dc:format>image/svg+xml</dc:format>
        <dc:type
           rdf:resource="http://purl.org/dc/dcmitype/StillImage" />
        <dc:title />
      </cc:Work>
    </rdf:RDF>
  </metadata>
  <defs
     id="defs14" />
  <sodipodi:namedview
     pagecolor="#ffffff"
     bordercolor="#666666"
     borderopacity="1"
     objecttolerance="10"
     gridtolerance="10"
     guidetolerance="10"
     inkscape:pageopacity="0"
     inkscape:pageshadow="2"
     inkscape:window-width="1422"
     inkscape:window-height="815"
     id="namedview12"
     showgrid="false"
     inkscape:zoom="3.6875"
     inkscape:cx="-12.20339"
     inkscape:cy="32"
     inkscape:window-x="0"
     inkscape:window-y="0"
     inkscape:window-maximized="0"
     inkscape:current-layer="svg10" />
  <path
     style="fill:#e4e4e4;stroke-width:1.22448933"
     d="m 30.575616,57.329176 22.04079,-8.571423 V 30.390425 L 59.963347,15.696568 37.922544,5.9006844 31.800103,16.92105 8.534835,26.716967 v 18.367327 z"
     id="path2"
     inkscape:connector-curvature="0" />
  <path
     style="fill:none;stroke:#000000;stroke-width:2.5111111;stroke-linecap:round;stroke-linejoin:round"
     d="M 8.534835,25.492485 30.575616,16.92105 M 52.616406,27.941445 30.575616,16.92105 36.698055,4.6758268 59.963347,15.696568 Z M 30.575616,58.55367 52.616406,49.982234 V 27.941445 l -22.04079,7.346937 m 0,23.265288 V 35.288382 L 8.534835,25.492485 v 19.591809 z"
     id="path4"
     inkscape:connector-curvature="0" />
  <path
     style="fill:#e4e4e4;stroke-width:1.22448933"
     d="M 30.575616,34.063909 26.902164,18.145558 4.861134,8.349654 8.534835,25.492485 Z"
     id="path6"
     inkscape:connector-curvature="0" />
  <path
     style="fill:none;stroke:#000000;stroke-width:2.5111111;stroke-linecap:round;stroke-linejoin:round"
     d="M 8.534835,25.492485 3.6366351,7.1251733 26.902164,18.145558 30.575616,35.288382 Z"
     id="path8"
     inkscape:connector-curvature="0" />
  <path
     style="fill:#f9f9f9;fill-opacity:1;stroke-width:0.27118644"
     d="M 19.105805,28.804626 C 13.997726,26.525812 9.7654161,24.608354 9.7006715,24.543609 9.4894004,24.332338 5.7002921,9.8838887 5.8237741,9.7604067 5.9053053,9.6788755 24.140271,18.133444 25.724118,18.987121 c 0.02352,0.01268 0.668358,2.951862 1.432974,6.531523 0.764617,3.579661 1.455293,6.722034 1.534835,6.983051 0.07954,0.261017 0.04487,0.468198 -0.07704,0.460403 -0.121916,-0.0078 -4.401002,-1.878657 -9.50908,-4.157472 z"
     id="path10"
     inkscape:connector-curvature="0" />
  <path
     style="fill:#f9f9f9;fill-opacity:1;stroke-width:0.27118644"
     d="M 19.579661,50.317203 9.9525424,44.428942 9.8808395,35.960229 c -0.057082,-6.741909 -0.00179,-8.439978 0.2711865,-8.327792 2.103411,0.86446 18.836007,8.408491 18.99035,8.561959 0.113731,0.113086 0.174748,4.661839 0.135594,10.108339 l -0.07119,9.902729 z"
     id="path12"
     inkscape:connector-curvature="0" />
  <path
     style="fill:#f9f9f9;fill-opacity:1;stroke-width:0.27118644"
     d="m 31.783051,46.423052 v -10.14644 l 9.762712,-3.255604 9.762712,-3.255605 -2.08e-4,9.673231 -2.08e-4,9.67323 -9.58292,3.728814 c -5.270606,2.050847 -9.663732,3.728814 -9.762504,3.728814 -0.09877,0 -0.179584,-4.565898 -0.179584,-10.14644 z"
     id="path14"
     inkscape:connector-curvature="0" />
  <path
     style="fill:#f9f9f9;fill-opacity:1;stroke-width:0.27118644"
     d="m 31.380064,32.908475 c -0.476812,-2.046912 -2.85125,-13.313714 -2.85125,-13.52929 0,-0.143604 0.425711,-0.438971 0.946024,-0.656372 l 0.946025,-0.395274 9.412401,4.707738 9.412401,4.707738 -8.663575,2.887814 c -4.764966,1.588299 -8.752746,2.887815 -8.861734,2.887815 -0.108987,0 -0.262119,-0.274576 -0.340292,-0.610169 z"
     id="path16"
     inkscape:connector-curvature="0" />
  <path
     style="fill:#f9f9f9;fill-opacity:1;stroke-width:0.27118644"
     d="m 42.223729,21.259623 c -5.369492,-2.687168 -9.803318,-4.923028 -9.852948,-4.968577 -0.09535,-0.08751 1.635009,-3.396333 3.86931,-7.3989619 L 37.578487,6.49442 47.739431,11.325081 c 5.58852,2.656864 10.198516,4.868233 10.244436,4.914154 0.09581,0.09581 -5.415414,9.354469 -5.766137,9.686913 -0.127209,0.12058 -4.62451,-1.979357 -9.994001,-4.666525 z"
     id="path18"
     inkscape:connector-curvature="0" />
</svg>
